# xmcd
#
# Track frame offsets:
#	182
#	12825
#	24530
#	36297
#	49402
#	58725
#	76250
#	86282
#	101892
#	114650
#	125965
#	138247
#	149907
#	160452
#	171017
#	193107
#	202605
#	214890
#	225377
#	236050
#	246297
#	260905
#	272520
#	283595
#	293990
#
# Disc length: 4128 seconds
#
# Revision: 4
# Processed by: cddbd v1.5.2PL0 Copyright (c) Steve Scherf et al.
# Submitted via: audiograbber 1.83.01
#
DISCID=7f101e19
DTITLE=Various Artist - The Best Of Loma Records  [CD1)
DYEAR=1995
DGENRE=Oldies
TTITLE0=Ike and Tina Turner - Finger Poppin'
TTITLE1=Little Jerry Williams - I'm The Lover Man
TTITLE2=Ike and Tina Turner - A Fool For A Fool
TTITLE3=Enchanters - I Wanna Thank You
TTITLE4=Invincibles - Heart Full Of Love
TTITLE5=Ike and Tina Turner - Tell Her I'm Not Home
TTITLE6=Olympics - Rainin' In My Heart
TTITLE7=Enchanters - I Want To Be Loved
TTITLE8=Enchanters - I Paid For The Party
TTITLE9=Olympics - Good Lovin'
TTITLE10=Ike and Tina Turner - (I'll Do Anything) Just To Be With You
TTITLE11=Ike and Tina Turner - Somebody (Somewhere) Needs You
TTITLE12=Walter Foster - Your Search Is Over
TTITLE13=Baby Lloyd - There's Something On Your Mind - Part 1
TTITLE14=Bobby Bennett and The Dynamics - Soul Jerk - Part 1 and 2
TTITLE15=Apollas - Lock Me In Your Heart
TTITLE16=Marvellos - Something's Burnin'
TTITLE17=Apollas - You're Absolutely Right
TTITLE18=Marvellos - We Go Together
TTITLE19=Invincibles - Can't Win
TTITLE20=Mary Lee Whitney - Don't Come A-Knockin'
TTITLE21=Marvellos - Why Do You Want To Hurt The One That Loves You
TTITLE22=Marvellos - You're Such A Sweet Thing
TTITLE23=Invincibles - I Couldn't Stand It
TTITLE24=Lorraine Ellison - Stay With Me
EXTD=
EXTT0=
EXTT1=
EXTT2=
EXTT3=
EXTT4=
EXTT5=
EXTT6=
EXTT7=
EXTT8=
EXTT9=
EXTT10=
EXTT11=
EXTT12=
EXTT13=
EXTT14=
EXTT15=
EXTT16=
EXTT17=
EXTT18=
EXTT19=
EXTT20=
EXTT21=
EXTT22=
EXTT23=
EXTT24=
PLAYORDER=
